<?xml version="1.0" encoding="utf-8"?>
<!-- Generator: Adobe Illustrator 15.0.0, SVG Export Plug-In . SVG Version: 6.00 Build 0)  -->
<!DOCTYPE svg PUBLIC "-//W3C//DTD SVG 1.1//EN" "http://www.w3.org/Graphics/SVG/1.1/DTD/svg11.dtd">
<svg version="1.1" id="Ebene_1" xmlns="http://www.w3.org/2000/svg" xmlns:xlink="http://www.w3.org/1999/xlink" x="0px" y="0px"
	 width="25px" height="25px" viewBox="0 0 25 25" enable-background="new 0 0 25 25" xml:space="preserve">
<g>
	<path fill="#EDEDED" d="M12.5,25C5.607,25,0,19.393,0,12.5S5.607,0,12.5,0S25,5.607,25,12.5S19.393,25,12.5,25z"/>
</g>
<path fill="#3C3C3B" d="M11.317,18.218c-0.372,0-0.733-0.139-1.01-0.392l-4.052-3.693c-0.612-0.558-0.656-1.507-0.098-2.119
	c0.558-0.611,1.508-0.656,2.119-0.098l2.776,2.53l5.33-7.809c0.469-0.685,1.402-0.859,2.085-0.393c0.685,0.467,0.86,1.4,0.394,2.084
	l-6.304,9.234c-0.245,0.358-0.633,0.594-1.064,0.645C11.434,18.215,11.375,18.218,11.317,18.218z"/>
</svg>
