<?xml version="1.0" encoding="UTF-8" standalone="no"?>
<!-- Generator: Adobe Illustrator 15.0.0, SVG Export Plug-In . SVG Version: 6.00 Build 0)  -->

<svg
   xmlns:dc="http://purl.org/dc/elements/1.1/"
   xmlns:cc="http://creativecommons.org/ns#"
   xmlns:rdf="http://www.w3.org/1999/02/22-rdf-syntax-ns#"
   xmlns:svg="http://www.w3.org/2000/svg"
   xmlns="http://www.w3.org/2000/svg"
   xmlns:sodipodi="http://sodipodi.sourceforge.net/DTD/sodipodi-0.dtd"
   xmlns:inkscape="http://www.inkscape.org/namespaces/inkscape"
   version="1.1"
   id="Ebene_1"
   x="0px"
   y="0px"
   width="15px"
   height="10px"
   viewBox="0 0 15 10"
   enable-background="new 0 0 15 10"
   xml:space="preserve"
   inkscape:version="0.48.4 r9939"
   sodipodi:docname="arrow_up.svg"><metadata
   id="metadata11"><rdf:RDF><cc:Work
       rdf:about=""><dc:format>image/svg+xml</dc:format><dc:type
         rdf:resource="http://purl.org/dc/dcmitype/StillImage" /><dc:title /></cc:Work></rdf:RDF></metadata><defs
   id="defs9" /><sodipodi:namedview
   pagecolor="#ffffff"
   bordercolor="#666666"
   borderopacity="1"
   objecttolerance="10"
   gridtolerance="10"
   guidetolerance="10"
   inkscape:pageopacity="0"
   inkscape:pageshadow="2"
   inkscape:window-width="1538"
   inkscape:window-height="877"
   id="namedview7"
   showgrid="false"
   inkscape:zoom="19.066667"
   inkscape:cx="-0.68181805"
   inkscape:cy="5.0000001"
   inkscape:window-x="54"
   inkscape:window-y="-8"
   inkscape:window-maximized="1"
   inkscape:current-layer="Ebene_1" />
<g
   id="g3"
   transform="matrix(1,0,0,-1,0,9.9997444)"
   style="fill:#3c3c3c;fill-opacity:1">
	<path
   d="M 7.967,9.582 14.809,1.624 C 15.031,1.33 15.064,0.903 14.887,0.569 14.724,0.226 14.394,0.005 14.017,0.005 L 0.991,0 C 0.625,0 0.295,0.22 0.121,0.549 0.045,0.689 0,0.863 0,1.021 0,1.229 0.062,1.438 0.172,1.595 l 6.183,7.966 c 0.174,0.27 0.48,0.438 0.801,0.438 0.316,0.013 0.622,-0.145 0.811,-0.417"
   id="path5"
   inkscape:connector-curvature="0"
   style="fill:#3c3c3c;fill-opacity:1" />
</g>
</svg>