<?xml version="1.0" encoding="utf-8"?>
<!-- Generator: Adobe Illustrator 15.0.0, SVG Export Plug-In . SVG Version: 6.00 Build 0)  -->
<!DOCTYPE svg PUBLIC "-//W3C//DTD SVG 1.1//EN" "http://www.w3.org/Graphics/SVG/1.1/DTD/svg11.dtd">
<svg version="1.1" id="Ebene_1" xmlns="http://www.w3.org/2000/svg" xmlns:xlink="http://www.w3.org/1999/xlink" x="0px" y="0px"
	 width="138px" height="65px" viewBox="0 0 138 65" enable-background="new 0 0 138 65" xml:space="preserve">
<g>
	<path fill="#EDEDED" d="M0.5,58.503c0,3.298,2.704,5.997,6.009,5.997h124.982c3.305,0,6.009-2.699,6.009-5.997V6.498
		c0-3.299-2.704-5.998-6.009-5.998H6.509C3.204,0.5,0.5,3.199,0.5,6.498V58.503z"/>
	<path fill="#3C3C3B" d="M131.491,65H6.509C2.92,65,0,62.085,0,58.503V6.498C0,2.915,2.92,0,6.509,0h124.982
		C135.08,0,138,2.915,138,6.498v52.005C138,62.085,135.08,65,131.491,65z M6.509,1C3.471,1,1,3.466,1,6.498v52.005
		C1,61.534,3.471,64,6.509,64h124.982c3.037,0,5.509-2.466,5.509-5.497V6.498C137,3.466,134.528,1,131.491,1H6.509z"/>
</g>
</svg>
