<?xml version="1.0" encoding="utf-8"?>
<!-- Generator: Adobe Illustrator 15.0.0, SVG Export Plug-In . SVG Version: 6.00 Build 0)  -->
<!DOCTYPE svg PUBLIC "-//W3C//DTD SVG 1.1//EN" "http://www.w3.org/Graphics/SVG/1.1/DTD/svg11.dtd">
<svg version="1.1" id="Ebene_1" xmlns="http://www.w3.org/2000/svg" xmlns:xlink="http://www.w3.org/1999/xlink" x="0px" y="0px"
	 width="70px" height="65px" viewBox="0 0 70 65" enable-background="new 0 0 70 65" xml:space="preserve">
<g>
	<path fill="#AEC719" d="M0.5,58.503c0,3.298,2.664,5.997,5.92,5.997h57.16c3.256,0,5.92-2.699,5.92-5.997V6.498
		c0-3.299-2.664-5.998-5.92-5.998H6.42C3.164,0.5,0.5,3.199,0.5,6.498V58.503z"/>
	<path fill="#3C3C3B" d="M63.58,65H6.42C2.88,65,0,62.085,0,58.503V6.498C0,2.915,2.88,0,6.42,0h57.16C67.12,0,70,2.915,70,6.498
		v52.005C70,62.085,67.12,65,63.58,65z M6.42,1C3.431,1,1,3.466,1,6.498v52.005C1,61.534,3.431,64,6.42,64h57.16
		c2.988,0,5.42-2.466,5.42-5.497V6.498C69,3.466,66.568,1,63.58,1H6.42z"/>
	<path fill="#FFFFFF" d="M43.487,39.584c0.276,0.667,0.805,0.874,1.356,0.874h0.207c0.575,0,1.035-0.46,1.035-1.035V25.577
		c0-0.575-0.46-1.035-1.035-1.035h-0.345c-0.575,0-1.035,0.46-1.035,1.035v6.624c0,0.896,0.046,1.149,0.046,1.356
		c0,0.23-0.068,0.346-0.207,0.346c-0.229,0-0.275-0.529-0.713-1.564l-2.967-6.923c-0.275-0.667-0.805-0.874-1.356-0.874h-0.207
		c-0.575,0-1.035,0.46-1.035,1.035v13.846c0,0.575,0.46,1.035,1.035,1.035h0.345c0.575,0,1.035-0.46,1.035-1.035v-6.624
		c0-0.897-0.046-1.15-0.046-1.357c0-0.23,0.068-0.345,0.207-0.345c0.229,0,0.275,0.529,0.713,1.564L43.487,39.584z M28.675,38.572
		c-0.966,0-1.771-0.575-2.116-1.426c-0.115-0.276-0.207-0.645-0.207-2.07v-5.152c0-1.426,0.092-1.794,0.207-2.07
		c0.345-0.851,1.15-1.426,2.116-1.426c0.966,0,1.771,0.575,2.116,1.426c0.115,0.276,0.207,0.644,0.207,2.07v5.152
		c0,1.426-0.092,1.794-0.207,2.07C30.446,37.997,29.641,38.572,28.675,38.572 M28.675,40.757c2.139,0,3.933-1.38,4.531-3.312
		c0.138-0.438,0.23-0.92,0.23-2.507v-4.876c0-1.587-0.092-2.07-0.23-2.507c-0.598-1.932-2.392-3.312-4.531-3.312
		c-2.139,0-3.933,1.38-4.531,3.312c-0.138,0.437-0.23,0.92-0.23,2.507v4.876c0,1.587,0.092,2.069,0.23,2.507
		C24.742,39.377,26.536,40.757,28.675,40.757"/>
</g>
</svg>
